<svg xmlns="http://www.w3.org/2000/svg" fill="none" viewBox="0 0 1127 1127" height="1127" width="1127">
<rect fill="#B4B4B4" transform="rotate(45 676.731 259.193)" height="659.295" width="135.112" y="259.193" x="676.731"></rect>
<rect fill="#D8D8D8" transform="rotate(45 772.27 354.731)" height="659.295" width="135.112" y="354.731" x="772.27"></rect>
<path fill="url(#paint0_linear_136_947)" d="M822.692 422.846C837.004 408.535 844.484 388.565 843.489 367.33C842.494 346.095 833.104 325.335 817.384 309.615C801.665 293.896 780.905 284.506 759.67 283.511C738.435 282.515 718.465 289.996 704.154 304.308L763.423 363.577L822.692 422.846Z"></path>
<path fill="#686868" d="M305.635 996.52C317.194 984.961 326.363 971.238 332.619 956.136C338.874 941.034 342.094 924.847 342.094 908.5C342.094 905.17 341.96 901.846 341.695 898.537L362.693 877.539L305.693 820.539L305.635 820.481L305.578 820.424L247.693 762.539L225.932 784.3C223.167 784.115 220.394 784.022 217.616 784.022C201.27 784.022 185.083 787.242 169.981 793.498C154.878 799.753 141.156 808.922 129.597 820.481L190.327 881.211L138.729 972.884C133.767 981.699 143.533 991.465 152.348 986.503L244.021 934.905L305.635 996.52Z" clip-rule="evenodd" fill-rule="evenodd"></path>
<path fill="#686868" d="M1020.84 281.307C1020.84 327.759 1002.38 372.308 969.539 405.154L946.539 382.154C959.782 368.91 970.287 353.188 977.455 335.885C984.622 318.582 988.311 300.036 988.311 281.307C988.311 262.579 984.622 244.033 977.455 226.73C970.287 209.427 959.782 193.705 946.539 180.461C933.296 167.218 917.574 156.713 900.27 149.546C882.967 142.378 864.422 138.69 845.693 138.69C826.964 138.69 808.419 142.378 791.115 149.546C773.812 156.713 758.09 167.218 744.847 180.461L721.847 157.461C754.693 124.615 799.242 106.163 845.693 106.163C892.144 106.163 936.693 124.615 969.539 157.461C1002.38 190.307 1020.84 234.856 1020.84 281.307Z" clip-rule="evenodd" fill-rule="evenodd"></path>
<path fill="#686868" d="M941.97 311.385C941.97 344.896 928.657 377.035 904.961 400.731L888.368 384.138C897.923 374.584 905.501 363.242 910.672 350.759C915.843 338.276 918.504 324.897 918.504 311.385C918.504 297.874 915.843 284.494 910.672 272.011C905.501 259.528 897.923 248.186 888.368 238.632C878.814 229.078 867.472 221.499 854.989 216.328C842.506 211.158 829.127 208.496 815.615 208.496C802.104 208.496 788.724 211.158 776.241 216.328C763.758 221.499 752.416 229.078 742.862 238.632L726.269 222.039C749.965 198.343 782.104 185.031 815.615 185.031C849.127 185.031 881.265 198.343 904.961 222.039C928.657 245.735 941.97 277.874 941.97 311.385ZM742.862 238.632L815.615 311.385L888.368 384.138L815.615 311.385L742.862 238.632C742.862 238.632 742.862 238.632 742.862 238.632Z" clip-rule="evenodd" fill-rule="evenodd"></path>
<rect stroke-width="20" stroke="#EA2D43" transform="rotate(45 192.846 14.1421)" height="252.725" width="505.434" y="14.1421" x="192.846"></rect>
<line stroke-width="20" stroke="#EA2D43" y2="427.275" x2="489.186" y1="78.7365" x1="140.648"></line>
<line stroke-width="20" stroke="#EA2D43" y2="315.802" x2="122.956" y1="122.956" x1="315.802"></line>
<line stroke-width="20" stroke="#EA2D43" y2="432.571" x2="239.725" y1="239.725" x1="432.571"></line>
<line stroke-width="20" stroke="#EA2D43" y2="488.313" x2="428.148" y1="139.775" x1="79.6096"></line>
<rect stroke-width="20" stroke="#EA2D43" transform="rotate(45 755.462 576.758)" height="252.725" width="505.434" y="576.758" x="755.462"></rect>
<line stroke-width="20" stroke="#EA2D43" y2="989.891" x2="1051.8" y1="641.352" x1="703.264"></line>
<line stroke-width="20" stroke="#EA2D43" y2="878.418" x2="685.571" y1="685.572" x1="878.417"></line>
<line stroke-width="20" stroke="#EA2D43" y2="995.187" x2="802.341" y1="802.341" x1="995.187"></line>
<line stroke-width="20" stroke="#EA2D43" y2="1050.93" x2="990.764" y1="702.391" x1="642.225"></line>
<defs>
<linearGradient gradientUnits="userSpaceOnUse" y2="304.308" x2="704.154" y1="422.846" x1="822.692" id="paint0_linear_136_947">
<stop stop-color="#7C7C7C"></stop>
<stop stop-color="#7C7C7C" offset="0.5"></stop>
<stop stop-color="#686868" offset="0.5"></stop>
<stop stop-color="#686868" offset="1"></stop>
</linearGradient>
</defs>
</svg>
